<svg width="39" height="34" viewBox="0 0 39 34" fill="none" xmlns="http://www.w3.org/2000/svg">
<g filter="url(#filter0_dddddddd_215_69)">
<path d="M25.6667 17.3333H22.3333C21.3958 17.3333 20.6667 18.1147 20.6667 19V25.6667C20.6667 26.6042 21.3958 27.3333 22.3333 27.3333H25.6667C26.552 27.3333 27.3333 26.6042 27.3333 25.6667V19C27.3333 18.1147 26.552 17.3333 25.6667 17.3333ZM24.8333 24.8333H23.1667V19.8333H24.8333V24.8333ZM34 10.6667H30.6667C29.7292 10.6667 29 11.448 29 12.3333V25.6667C29 26.6042 29.7292 27.3333 30.6667 27.3333H34C34.8853 27.3333 35.6667 26.6042 35.6667 25.6667V12.3333C35.6667 11.448 34.8853 10.6667 34 10.6667ZM33.1667 24.8333H31.5V13.1667H33.1667V24.8333ZM17.3333 10.6667H14C13.0625 10.6667 12.3333 11.448 12.3333 12.3333V25.6667C12.3333 26.6042 13.0625 27.3333 14 27.3333H17.3333C18.2187 27.3333 19 26.6042 19 25.6667V12.3333C19 11.448 18.2187 10.6667 17.3333 10.6667ZM16.5 24.8333H14.8333V13.1667H16.5V24.8333ZM9 19H5.66667C4.72917 19 4 19.7813 4 20.6667V25.6667C4 26.6042 4.72917 27.3333 5.66667 27.3333H9C9.88542 27.3333 10.6667 26.6042 10.6667 25.6667V20.6667C10.6667 19.7813 9.88542 19 9 19ZM8.16667 24.8333H6.5V21.5H8.16667V24.8333ZM7.33333 14C8.6875 14 9.83333 12.9063 9.83333 11.5C9.83333 11.2917 9.78125 11.0833 9.72917 10.875L14.9896 5.61459C15.1979 5.66667 15.4063 5.66667 15.6667 5.66667C15.9792 5.66667 16.2397 5.61459 16.552 5.51042L21.5 9.46875C21.5 9.625 21.5 9.72917 21.5 9.83333C21.5 11.2397 22.5937 12.3333 24 12.3333C25.3542 12.3333 26.5 11.2397 26.5 9.83333C26.5 9.72917 26.448 9.625 26.448 9.46875L31.3958 5.51042C31.7083 5.61459 31.9687 5.66667 32.3333 5.66667C33.6875 5.66667 34.8333 4.57292 34.8333 3.16667C34.8333 1.8125 33.6875 0.666672 32.3333 0.666672C30.927 0.666672 29.8333 1.8125 29.8333 3.16667C29.8333 3.32292 29.8333 3.42709 29.8333 3.58334L24.8853 7.54167C24.573 7.4375 24.3125 7.33334 23.948 7.33334C23.6353 7.33334 23.375 7.4375 23.0625 7.54167L18.1147 3.58334C18.1147 3.42709 18.1667 3.32292 18.1667 3.16667C18.1667 1.8125 17.0208 0.666672 15.6667 0.666672C14.2604 0.666672 13.1667 1.8125 13.1667 3.16667C13.1667 3.42709 13.1667 3.63542 13.2188 3.84375L7.95833 9.10417C7.75 9.05208 7.54167 9 7.33333 9C5.92708 9 4.83333 10.1458 4.83333 11.5C4.83333 12.9063 5.92708 14 7.33333 14Z" fill="white"/>
</g>
<defs>
<filter id="filter0_dddddddd_215_69" x="0" y="0.666672" width="39.6667" height="34.6667" filterUnits="userSpaceOnUse" color-interpolation-filters="sRGB">
<feFlood flood-opacity="0" result="BackgroundImageFix"/>
<feColorMatrix in="SourceAlpha" type="matrix" values="0 0 0 0 0 0 0 0 0 0 0 0 0 0 0 0 0 0 127 0" result="hardAlpha"/>
<feOffset dy="4"/>
<feGaussianBlur stdDeviation="2"/>
<feComposite in2="hardAlpha" operator="out"/>
<feColorMatrix type="matrix" values="0 0 0 0 0 0 0 0 0 0 0 0 0 0 0 0 0 0 0.25 0"/>
<feBlend mode="normal" in2="BackgroundImageFix" result="effect1_dropShadow_215_69"/>
<feColorMatrix in="SourceAlpha" type="matrix" values="0 0 0 0 0 0 0 0 0 0 0 0 0 0 0 0 0 0 127 0" result="hardAlpha"/>
<feOffset dy="4"/>
<feGaussianBlur stdDeviation="2"/>
<feComposite in2="hardAlpha" operator="out"/>
<feColorMatrix type="matrix" values="0 0 0 0 0 0 0 0 0 0 0 0 0 0 0 0 0 0 0.25 0"/>
<feBlend mode="normal" in2="effect1_dropShadow_215_69" result="effect2_dropShadow_215_69"/>
<feColorMatrix in="SourceAlpha" type="matrix" values="0 0 0 0 0 0 0 0 0 0 0 0 0 0 0 0 0 0 127 0" result="hardAlpha"/>
<feOffset dy="4"/>
<feGaussianBlur stdDeviation="2"/>
<feComposite in2="hardAlpha" operator="out"/>
<feColorMatrix type="matrix" values="0 0 0 0 0 0 0 0 0 0 0 0 0 0 0 0 0 0 0.25 0"/>
<feBlend mode="normal" in2="effect2_dropShadow_215_69" result="effect3_dropShadow_215_69"/>
<feColorMatrix in="SourceAlpha" type="matrix" values="0 0 0 0 0 0 0 0 0 0 0 0 0 0 0 0 0 0 127 0" result="hardAlpha"/>
<feOffset dy="4"/>
<feGaussianBlur stdDeviation="2"/>
<feComposite in2="hardAlpha" operator="out"/>
<feColorMatrix type="matrix" values="0 0 0 0 0 0 0 0 0 0 0 0 0 0 0 0 0 0 0.25 0"/>
<feBlend mode="normal" in2="effect3_dropShadow_215_69" result="effect4_dropShadow_215_69"/>
<feColorMatrix in="SourceAlpha" type="matrix" values="0 0 0 0 0 0 0 0 0 0 0 0 0 0 0 0 0 0 127 0" result="hardAlpha"/>
<feOffset dy="4"/>
<feGaussianBlur stdDeviation="2"/>
<feComposite in2="hardAlpha" operator="out"/>
<feColorMatrix type="matrix" values="0 0 0 0 0 0 0 0 0 0 0 0 0 0 0 0 0 0 0.25 0"/>
<feBlend mode="normal" in2="effect4_dropShadow_215_69" result="effect5_dropShadow_215_69"/>
<feColorMatrix in="SourceAlpha" type="matrix" values="0 0 0 0 0 0 0 0 0 0 0 0 0 0 0 0 0 0 127 0" result="hardAlpha"/>
<feOffset dy="4"/>
<feGaussianBlur stdDeviation="2"/>
<feComposite in2="hardAlpha" operator="out"/>
<feColorMatrix type="matrix" values="0 0 0 0 0 0 0 0 0 0 0 0 0 0 0 0 0 0 0.25 0"/>
<feBlend mode="normal" in2="effect5_dropShadow_215_69" result="effect6_dropShadow_215_69"/>
<feColorMatrix in="SourceAlpha" type="matrix" values="0 0 0 0 0 0 0 0 0 0 0 0 0 0 0 0 0 0 127 0" result="hardAlpha"/>
<feOffset dy="4"/>
<feGaussianBlur stdDeviation="2"/>
<feComposite in2="hardAlpha" operator="out"/>
<feColorMatrix type="matrix" values="0 0 0 0 0 0 0 0 0 0 0 0 0 0 0 0 0 0 0.25 0"/>
<feBlend mode="normal" in2="effect6_dropShadow_215_69" result="effect7_dropShadow_215_69"/>
<feColorMatrix in="SourceAlpha" type="matrix" values="0 0 0 0 0 0 0 0 0 0 0 0 0 0 0 0 0 0 127 0" result="hardAlpha"/>
<feOffset dy="4"/>
<feGaussianBlur stdDeviation="2"/>
<feComposite in2="hardAlpha" operator="out"/>
<feColorMatrix type="matrix" values="0 0 0 0 0 0 0 0 0 0 0 0 0 0 0 0 0 0 0.25 0"/>
<feBlend mode="normal" in2="effect7_dropShadow_215_69" result="effect8_dropShadow_215_69"/>
<feBlend mode="normal" in="SourceGraphic" in2="effect8_dropShadow_215_69" result="shape"/>
</filter>
</defs>
</svg>
