<svg width="24" height="24" viewBox="0 0 24 24" fill="none" xmlns="http://www.w3.org/2000/svg">
<path d="M16 14H14C13.4375 14 13 14.4688 13 15V19C13 19.5625 13.4375 20 14 20H16C16.5312 20 17 19.5625 17 19V15C17 14.4688 16.5312 14 16 14ZM15.5 18.5H14.5V15.5H15.5V18.5ZM21 10H19C18.4375 10 18 10.4688 18 11V19C18 19.5625 18.4375 20 19 20H21C21.5312 20 22 19.5625 22 19V11C22 10.4688 21.5312 10 21 10ZM20.5 18.5H19.5V11.5H20.5V18.5ZM11 10H9C8.4375 10 8 10.4688 8 11V19C8 19.5625 8.4375 20 9 20H11C11.5312 20 12 19.5625 12 19V11C12 10.4688 11.5312 10 11 10ZM10.5 18.5H9.5V11.5H10.5V18.5ZM6 15H4C3.4375 15 3 15.4688 3 16V19C3 19.5625 3.4375 20 4 20H6C6.53125 20 7 19.5625 7 19V16C7 15.4688 6.53125 15 6 15ZM5.5 18.5H4.5V16.5H5.5V18.5ZM5 12C5.8125 12 6.5 11.3438 6.5 10.5C6.5 10.375 6.46875 10.25 6.4375 10.125L9.59375 6.96875C9.71875 7 9.84375 7 10 7C10.1875 7 10.3438 6.96875 10.5312 6.90625L13.5 9.28125C13.5 9.375 13.5 9.4375 13.5 9.5C13.5 10.3438 14.1562 11 15 11C15.8125 11 16.5 10.3438 16.5 9.5C16.5 9.4375 16.4688 9.375 16.4688 9.28125L19.4375 6.90625C19.625 6.96875 19.7812 7 20 7C20.8125 7 21.5 6.34375 21.5 5.5C21.5 4.6875 20.8125 4 20 4C19.1562 4 18.5 4.6875 18.5 5.5C18.5 5.59375 18.5 5.65625 18.5 5.75L15.5312 8.125C15.3438 8.0625 15.1875 8 14.9688 8C14.7812 8 14.625 8.0625 14.4375 8.125L11.4688 5.75C11.4688 5.65625 11.5 5.59375 11.5 5.5C11.5 4.6875 10.8125 4 10 4C9.15625 4 8.5 4.6875 8.5 5.5C8.5 5.65625 8.5 5.78125 8.53125 5.90625L5.375 9.0625C5.25 9.03125 5.125 9 5 9C4.15625 9 3.5 9.6875 3.5 10.5C3.5 11.3438 4.15625 12 5 12Z" fill="white"/>
</svg>
