<svg width="24" height="24" viewBox="0 0 24 24" fill="none" xmlns="http://www.w3.org/2000/svg">
<path d="M15.3438 9.8125C15.5938 9.5625 15.4062 9.15625 15.0938 9.15625H13V4.375C13 4.1875 12.8125 4 12.625 4H11.375C11.1562 4 11 4.1875 11 4.375V9.15625H8.90625C8.5625 9.15625 8.375 9.5625 8.625 9.8125L11.7188 12.9062C11.875 13.0625 12.0938 13.0625 12.25 12.9062L15.3438 9.8125ZM19.5 15V18.5H4.5V15H8.25L9.25 17H14.75L15.75 15H19.5ZM21 15.0938C21 14.7188 20.8438 14.375 20.625 14.0938L17.4375 10.5312C17.375 10.4375 17.2812 10.375 17.1875 10.2812C17.125 10.25 17 10.25 16.9375 10.3125L16.1875 11.0938C16.125 11.1562 16.0938 11.2812 16.1875 11.3438L18.0938 13.5H14.8125L13.8125 15.5H10.1562L9.15625 13.5H5.875L7.8125 11.3438C7.875 11.2812 7.875 11.1562 7.78125 11.0938L7.03125 10.3125C6.96875 10.25 6.84375 10.25 6.78125 10.3125C6.6875 10.375 6.625 10.4375 6.53125 10.5312L3.375 14.0938C3.125 14.375 3 14.7188 3 15.0938V18.5C3 19.3438 3.65625 20 4.5 20H19.5C20.3125 20 21 19.3438 21 18.5V15.0938Z" fill="white"/>
</svg>
