<svg width="34" height="34" viewBox="0 0 34 34" fill="none" xmlns="http://www.w3.org/2000/svg">
<g filter="url(#filter0_dddddddd_215_59)">
<path d="M30 2.78571C30 1.27679 28.7232 0 27.2143 0H6.78571C5.21875 0 4 1.27679 4 2.78571V23.2143C4 24.7813 5.21875 26 6.78571 26H27.2143C28.7232 26 30 24.7813 30 23.2143V2.78571ZM27.2143 22.8661C27.2143 23.0982 27.0401 23.2143 26.8661 23.2143H7.13393C6.90179 23.2143 6.78571 23.0982 6.78571 22.8661V3.13393C6.78571 2.95982 6.90179 2.78571 7.13393 2.78571H26.8661C27.0401 2.78571 27.2143 2.95982 27.2143 3.13393V22.8661ZM17 4.99107C15.6071 4.99107 14.5625 6.09375 14.5625 7.42857C14.5625 8.82143 15.6071 9.86607 17 9.86607C18.3349 9.86607 19.4375 8.82143 19.4375 7.42857C19.4375 6.09375 18.3349 4.99107 17 4.99107ZM20.25 19.7321V18.3393C20.25 17.9911 19.9018 17.6429 19.5536 17.6429H18.8571V11.8393C18.8571 11.4911 18.5089 11.1429 18.1607 11.1429H14.4464C14.0401 11.1429 13.75 11.4911 13.75 11.8393V13.2321C13.75 13.6385 14.0401 13.9286 14.4464 13.9286H15.1429V17.6429H14.4464C14.0401 17.6429 13.75 17.9911 13.75 18.3393V19.7321C13.75 20.1385 14.0401 20.4286 14.4464 20.4286H19.5536C19.9018 20.4286 20.25 20.1385 20.25 19.7321Z" fill="white"/>
</g>
<defs>
<filter id="filter0_dddddddd_215_59" x="0" y="0" width="34" height="34" filterUnits="userSpaceOnUse" color-interpolation-filters="sRGB">
<feFlood flood-opacity="0" result="BackgroundImageFix"/>
<feColorMatrix in="SourceAlpha" type="matrix" values="0 0 0 0 0 0 0 0 0 0 0 0 0 0 0 0 0 0 127 0" result="hardAlpha"/>
<feOffset dy="4"/>
<feGaussianBlur stdDeviation="2"/>
<feComposite in2="hardAlpha" operator="out"/>
<feColorMatrix type="matrix" values="0 0 0 0 0 0 0 0 0 0 0 0 0 0 0 0 0 0 0.25 0"/>
<feBlend mode="normal" in2="BackgroundImageFix" result="effect1_dropShadow_215_59"/>
<feColorMatrix in="SourceAlpha" type="matrix" values="0 0 0 0 0 0 0 0 0 0 0 0 0 0 0 0 0 0 127 0" result="hardAlpha"/>
<feOffset dy="4"/>
<feGaussianBlur stdDeviation="2"/>
<feComposite in2="hardAlpha" operator="out"/>
<feColorMatrix type="matrix" values="0 0 0 0 0 0 0 0 0 0 0 0 0 0 0 0 0 0 0.25 0"/>
<feBlend mode="normal" in2="effect1_dropShadow_215_59" result="effect2_dropShadow_215_59"/>
<feColorMatrix in="SourceAlpha" type="matrix" values="0 0 0 0 0 0 0 0 0 0 0 0 0 0 0 0 0 0 127 0" result="hardAlpha"/>
<feOffset dy="4"/>
<feGaussianBlur stdDeviation="2"/>
<feComposite in2="hardAlpha" operator="out"/>
<feColorMatrix type="matrix" values="0 0 0 0 0 0 0 0 0 0 0 0 0 0 0 0 0 0 0.25 0"/>
<feBlend mode="normal" in2="effect2_dropShadow_215_59" result="effect3_dropShadow_215_59"/>
<feColorMatrix in="SourceAlpha" type="matrix" values="0 0 0 0 0 0 0 0 0 0 0 0 0 0 0 0 0 0 127 0" result="hardAlpha"/>
<feOffset dy="4"/>
<feGaussianBlur stdDeviation="2"/>
<feComposite in2="hardAlpha" operator="out"/>
<feColorMatrix type="matrix" values="0 0 0 0 0 0 0 0 0 0 0 0 0 0 0 0 0 0 0.25 0"/>
<feBlend mode="normal" in2="effect3_dropShadow_215_59" result="effect4_dropShadow_215_59"/>
<feColorMatrix in="SourceAlpha" type="matrix" values="0 0 0 0 0 0 0 0 0 0 0 0 0 0 0 0 0 0 127 0" result="hardAlpha"/>
<feOffset dy="4"/>
<feGaussianBlur stdDeviation="2"/>
<feComposite in2="hardAlpha" operator="out"/>
<feColorMatrix type="matrix" values="0 0 0 0 0 0 0 0 0 0 0 0 0 0 0 0 0 0 0.25 0"/>
<feBlend mode="normal" in2="effect4_dropShadow_215_59" result="effect5_dropShadow_215_59"/>
<feColorMatrix in="SourceAlpha" type="matrix" values="0 0 0 0 0 0 0 0 0 0 0 0 0 0 0 0 0 0 127 0" result="hardAlpha"/>
<feOffset dy="4"/>
<feGaussianBlur stdDeviation="2"/>
<feComposite in2="hardAlpha" operator="out"/>
<feColorMatrix type="matrix" values="0 0 0 0 0 0 0 0 0 0 0 0 0 0 0 0 0 0 0.25 0"/>
<feBlend mode="normal" in2="effect5_dropShadow_215_59" result="effect6_dropShadow_215_59"/>
<feColorMatrix in="SourceAlpha" type="matrix" values="0 0 0 0 0 0 0 0 0 0 0 0 0 0 0 0 0 0 127 0" result="hardAlpha"/>
<feOffset dy="4"/>
<feGaussianBlur stdDeviation="2"/>
<feComposite in2="hardAlpha" operator="out"/>
<feColorMatrix type="matrix" values="0 0 0 0 0 0 0 0 0 0 0 0 0 0 0 0 0 0 0.25 0"/>
<feBlend mode="normal" in2="effect6_dropShadow_215_59" result="effect7_dropShadow_215_59"/>
<feColorMatrix in="SourceAlpha" type="matrix" values="0 0 0 0 0 0 0 0 0 0 0 0 0 0 0 0 0 0 127 0" result="hardAlpha"/>
<feOffset dy="4"/>
<feGaussianBlur stdDeviation="2"/>
<feComposite in2="hardAlpha" operator="out"/>
<feColorMatrix type="matrix" values="0 0 0 0 0 0 0 0 0 0 0 0 0 0 0 0 0 0 0.25 0"/>
<feBlend mode="normal" in2="effect7_dropShadow_215_59" result="effect8_dropShadow_215_59"/>
<feBlend mode="normal" in="SourceGraphic" in2="effect8_dropShadow_215_59" result="shape"/>
</filter>
</defs>
</svg>
