<svg width="24" height="24" viewBox="0 0 24 24" fill="none" xmlns="http://www.w3.org/2000/svg">
<path d="M19.375 15.0938L16.9062 14L19.375 12.9375C19.7812 12.7812 19.9375 12.3438 19.7812 11.9375C19.625 11.5625 19.1562 11.4062 18.7812 11.5625L12 14.5312L6.21875 12L11.5625 9.71875C11.9375 9.53125 12.125 9.09375 11.9375 8.71875C11.7812 8.34375 11.3438 8.15625 10.9688 8.3125L4.59375 11.0938C4.21875 11.25 4 11.625 4 12C4 12.4062 4.21875 12.7812 4.59375 12.9375L7.0625 14L4.59375 15.0938C4.21875 15.25 4 15.625 4 16.0312C4 16.4062 4.21875 16.7812 4.59375 16.9375L11.4062 19.9062C11.5938 19.9688 11.7812 20.0312 11.9688 20.0312C12.1875 20 12.375 19.9688 12.5625 19.9062L19.375 16.9375C19.75 16.7812 19.9688 16.4062 19.9688 16.0312C20 15.625 19.75 15.25 19.375 15.0938ZM12 18.5312L6.21875 16L8.96875 14.8438L11.4062 15.9062C11.5938 15.9688 11.7812 16 12 16C12.1875 16 12.375 15.9688 12.5625 15.9062L15 14.8438L17.75 16.0312L12 18.5312ZM19.5 6.75H17.25V4.5C17.25 4.25 17 4 16.75 4H16.25C15.9688 4 15.75 4.25 15.75 4.5V6.75H13.5C13.2188 6.75 13 7 13 7.25V7.75C13 8.03125 13.2188 8.25 13.5 8.25H15.75V10.5C15.75 10.7812 15.9688 11 16.25 11H16.75C17 11 17.25 10.7812 17.25 10.5V8.25H19.5C19.75 8.25 20 8.03125 20 7.75V7.25C20 7 19.75 6.75 19.5 6.75Z" fill="white"/>
</svg>
