<svg width="33" height="38" viewBox="0 0 33 38" fill="none" xmlns="http://www.w3.org/2000/svg">
<g filter="url(#filter0_dddddddd_218_72)">
<path d="M25.914 10C25.4453 10 19.8594 10.2734 16.5 12.2266C13.1016 10.2734 7.51562 10 7.04688 10C5.36719 10 4 11.3672 4 13.0078V25.2735C4 26.836 5.25 28.164 6.85156 28.2422C8.29688 28.3202 11.8906 28.6327 14.1953 29.7656C14.5078 29.9219 14.8594 30 15.211 30H17.75C18.1015 30 18.4531 29.9219 18.7656 29.7656C21.0702 28.6327 24.664 28.3202 26.1094 28.2422C27.711 28.164 29 26.836 29 25.2735V13.0078C29 11.3672 27.5938 10 25.914 10ZM15.5625 27.1485C15.5625 27.5781 15.1327 27.8906 14.7031 27.7344C12.2031 26.7577 8.6875 26.4844 6.96875 26.3672C6.34375 26.3281 5.875 25.8594 5.875 25.2735V13.0078C5.875 12.3828 6.38281 11.875 7.04688 11.875C7.78906 11.9141 11.9688 12.1875 14.7812 13.4766C15.25 13.6719 15.5235 14.1406 15.5235 14.6094L15.5625 18.75V27.1485ZM27.125 25.2735C27.125 25.8594 26.6172 26.3281 25.9922 26.3672C24.2735 26.4844 20.7578 26.7577 18.2578 27.7344C17.8281 27.8906 17.4375 27.5781 17.4375 27.1485V18.75V14.6094C17.4375 14.1406 17.711 13.6719 18.1797 13.4766C20.9922 12.1875 25.1719 11.9141 25.914 11.875C26.5781 11.875 27.125 12.3828 27.125 13.0078V25.2735Z" fill="white"/>
<path d="M22.5 0C18.8776 0 16 2.71611 16 5.99416C16 8.24196 16.7787 8.92879 21.112 15.2975C21.7551 16.2342 23.2109 16.2342 23.8542 15.2975C28.1875 8.92879 29 8.24196 29 5.99416C29 2.68488 26.0546 0 22.5 0ZM22.5 14.4859C18.1667 8.11709 17.625 7.71128 17.625 5.99416C17.625 3.5278 19.7917 1.49854 22.5 1.49854C25.1745 1.49854 27.375 3.5278 27.375 5.99416C27.375 7.71128 26.8333 8.05465 22.5 14.4859ZM19.7917 5.99416C19.7917 7.39899 20.9766 8.49172 22.5 8.49172C23.9896 8.49172 25.2083 7.39899 25.2083 5.99416C25.2083 4.62049 23.9896 3.49659 22.5 3.49659C20.9766 3.49659 19.7917 4.62049 19.7917 5.99416Z" fill="white"/>
</g>
<defs>
<filter id="filter0_dddddddd_218_72" x="0" y="0" width="33" height="38" filterUnits="userSpaceOnUse" color-interpolation-filters="sRGB">
<feFlood flood-opacity="0" result="BackgroundImageFix"/>
<feColorMatrix in="SourceAlpha" type="matrix" values="0 0 0 0 0 0 0 0 0 0 0 0 0 0 0 0 0 0 127 0" result="hardAlpha"/>
<feOffset dy="4"/>
<feGaussianBlur stdDeviation="2"/>
<feComposite in2="hardAlpha" operator="out"/>
<feColorMatrix type="matrix" values="0 0 0 0 0 0 0 0 0 0 0 0 0 0 0 0 0 0 0.25 0"/>
<feBlend mode="normal" in2="BackgroundImageFix" result="effect1_dropShadow_218_72"/>
<feColorMatrix in="SourceAlpha" type="matrix" values="0 0 0 0 0 0 0 0 0 0 0 0 0 0 0 0 0 0 127 0" result="hardAlpha"/>
<feOffset dy="4"/>
<feGaussianBlur stdDeviation="2"/>
<feComposite in2="hardAlpha" operator="out"/>
<feColorMatrix type="matrix" values="0 0 0 0 0 0 0 0 0 0 0 0 0 0 0 0 0 0 0.25 0"/>
<feBlend mode="normal" in2="effect1_dropShadow_218_72" result="effect2_dropShadow_218_72"/>
<feColorMatrix in="SourceAlpha" type="matrix" values="0 0 0 0 0 0 0 0 0 0 0 0 0 0 0 0 0 0 127 0" result="hardAlpha"/>
<feOffset dy="4"/>
<feGaussianBlur stdDeviation="2"/>
<feComposite in2="hardAlpha" operator="out"/>
<feColorMatrix type="matrix" values="0 0 0 0 0 0 0 0 0 0 0 0 0 0 0 0 0 0 0.25 0"/>
<feBlend mode="normal" in2="effect2_dropShadow_218_72" result="effect3_dropShadow_218_72"/>
<feColorMatrix in="SourceAlpha" type="matrix" values="0 0 0 0 0 0 0 0 0 0 0 0 0 0 0 0 0 0 127 0" result="hardAlpha"/>
<feOffset dy="4"/>
<feGaussianBlur stdDeviation="2"/>
<feComposite in2="hardAlpha" operator="out"/>
<feColorMatrix type="matrix" values="0 0 0 0 0 0 0 0 0 0 0 0 0 0 0 0 0 0 0.25 0"/>
<feBlend mode="normal" in2="effect3_dropShadow_218_72" result="effect4_dropShadow_218_72"/>
<feColorMatrix in="SourceAlpha" type="matrix" values="0 0 0 0 0 0 0 0 0 0 0 0 0 0 0 0 0 0 127 0" result="hardAlpha"/>
<feOffset dy="4"/>
<feGaussianBlur stdDeviation="2"/>
<feComposite in2="hardAlpha" operator="out"/>
<feColorMatrix type="matrix" values="0 0 0 0 0 0 0 0 0 0 0 0 0 0 0 0 0 0 0.25 0"/>
<feBlend mode="normal" in2="effect4_dropShadow_218_72" result="effect5_dropShadow_218_72"/>
<feColorMatrix in="SourceAlpha" type="matrix" values="0 0 0 0 0 0 0 0 0 0 0 0 0 0 0 0 0 0 127 0" result="hardAlpha"/>
<feOffset dy="4"/>
<feGaussianBlur stdDeviation="2"/>
<feComposite in2="hardAlpha" operator="out"/>
<feColorMatrix type="matrix" values="0 0 0 0 0 0 0 0 0 0 0 0 0 0 0 0 0 0 0.25 0"/>
<feBlend mode="normal" in2="effect5_dropShadow_218_72" result="effect6_dropShadow_218_72"/>
<feColorMatrix in="SourceAlpha" type="matrix" values="0 0 0 0 0 0 0 0 0 0 0 0 0 0 0 0 0 0 127 0" result="hardAlpha"/>
<feOffset dy="4"/>
<feGaussianBlur stdDeviation="2"/>
<feComposite in2="hardAlpha" operator="out"/>
<feColorMatrix type="matrix" values="0 0 0 0 0 0 0 0 0 0 0 0 0 0 0 0 0 0 0.25 0"/>
<feBlend mode="normal" in2="effect6_dropShadow_218_72" result="effect7_dropShadow_218_72"/>
<feColorMatrix in="SourceAlpha" type="matrix" values="0 0 0 0 0 0 0 0 0 0 0 0 0 0 0 0 0 0 127 0" result="hardAlpha"/>
<feOffset dy="4"/>
<feGaussianBlur stdDeviation="2"/>
<feComposite in2="hardAlpha" operator="out"/>
<feColorMatrix type="matrix" values="0 0 0 0 0 0 0 0 0 0 0 0 0 0 0 0 0 0 0.25 0"/>
<feBlend mode="normal" in2="effect7_dropShadow_218_72" result="effect8_dropShadow_218_72"/>
<feBlend mode="normal" in="SourceGraphic" in2="effect8_dropShadow_218_72" result="shape"/>
</filter>
</defs>
</svg>
