<svg width="40" height="36" viewBox="0 0 40 36" fill="none" xmlns="http://www.w3.org/2000/svg">
<g filter="url(#filter0_dddddddd_218_54)">
<path d="M33 0H7C5.3125 0 4 1.375 4 3V25C4 26.6876 5.3125 28 7 28H33C34.625 28 36 26.6876 36 25V3C36 1.375 34.625 0 33 0ZM32.625 25H7.375C7.125 25 7 24.875 7 24.625V3.375C7 3.1875 7.125 3 7.375 3H32.625C32.8124 3 33 3.1875 33 3.375V24.625C33 24.875 32.8124 25 32.625 25ZM30 19.25C30 18.875 29.625 18.5 29.25 18.5H16.75C16.3124 18.5 16 18.875 16 19.25V20.75C16 21.1876 16.3124 21.5 16.75 21.5H29.25C29.625 21.5 30 21.1876 30 20.75V19.25ZM30 13.25C30 12.875 29.625 12.5 29.25 12.5H16.75C16.3124 12.5 16 12.875 16 13.25V14.75C16 15.1876 16.3124 15.5 16.75 15.5H29.25C29.625 15.5 30 15.1876 30 14.75V13.25ZM30 7.25C30 6.875 29.625 6.5 29.25 6.5H16.75C16.3124 6.5 16 6.875 16 7.25V8.75C16 9.1875 16.3124 9.5 16.75 9.5H29.25C29.625 9.5 30 9.1875 30 8.75V7.25ZM14.25 8C14.25 6.8125 13.1875 5.75 12 5.75C10.75 5.75 9.75 6.8125 9.75 8C9.75 9.25 10.75 10.25 12 10.25C13.1875 10.25 14.25 9.25 14.25 8ZM14.25 14C14.25 12.8124 13.1875 11.75 12 11.75C10.75 11.75 9.75 12.8124 9.75 14C9.75 15.25 10.75 16.25 12 16.25C13.1875 16.25 14.25 15.25 14.25 14ZM14.25 20C14.25 18.8124 13.1875 17.75 12 17.75C10.75 17.75 9.75 18.8124 9.75 20C9.75 21.25 10.75 22.25 12 22.25C13.1875 22.25 14.25 21.25 14.25 20Z" fill="white"/>
</g>
<defs>
<filter id="filter0_dddddddd_218_54" x="0" y="0" width="40" height="36" filterUnits="userSpaceOnUse" color-interpolation-filters="sRGB">
<feFlood flood-opacity="0" result="BackgroundImageFix"/>
<feColorMatrix in="SourceAlpha" type="matrix" values="0 0 0 0 0 0 0 0 0 0 0 0 0 0 0 0 0 0 127 0" result="hardAlpha"/>
<feOffset dy="4"/>
<feGaussianBlur stdDeviation="2"/>
<feComposite in2="hardAlpha" operator="out"/>
<feColorMatrix type="matrix" values="0 0 0 0 0 0 0 0 0 0 0 0 0 0 0 0 0 0 0.25 0"/>
<feBlend mode="normal" in2="BackgroundImageFix" result="effect1_dropShadow_218_54"/>
<feColorMatrix in="SourceAlpha" type="matrix" values="0 0 0 0 0 0 0 0 0 0 0 0 0 0 0 0 0 0 127 0" result="hardAlpha"/>
<feOffset dy="4"/>
<feGaussianBlur stdDeviation="2"/>
<feComposite in2="hardAlpha" operator="out"/>
<feColorMatrix type="matrix" values="0 0 0 0 0 0 0 0 0 0 0 0 0 0 0 0 0 0 0.25 0"/>
<feBlend mode="normal" in2="effect1_dropShadow_218_54" result="effect2_dropShadow_218_54"/>
<feColorMatrix in="SourceAlpha" type="matrix" values="0 0 0 0 0 0 0 0 0 0 0 0 0 0 0 0 0 0 127 0" result="hardAlpha"/>
<feOffset dy="4"/>
<feGaussianBlur stdDeviation="2"/>
<feComposite in2="hardAlpha" operator="out"/>
<feColorMatrix type="matrix" values="0 0 0 0 0 0 0 0 0 0 0 0 0 0 0 0 0 0 0.25 0"/>
<feBlend mode="normal" in2="effect2_dropShadow_218_54" result="effect3_dropShadow_218_54"/>
<feColorMatrix in="SourceAlpha" type="matrix" values="0 0 0 0 0 0 0 0 0 0 0 0 0 0 0 0 0 0 127 0" result="hardAlpha"/>
<feOffset dy="4"/>
<feGaussianBlur stdDeviation="2"/>
<feComposite in2="hardAlpha" operator="out"/>
<feColorMatrix type="matrix" values="0 0 0 0 0 0 0 0 0 0 0 0 0 0 0 0 0 0 0.25 0"/>
<feBlend mode="normal" in2="effect3_dropShadow_218_54" result="effect4_dropShadow_218_54"/>
<feColorMatrix in="SourceAlpha" type="matrix" values="0 0 0 0 0 0 0 0 0 0 0 0 0 0 0 0 0 0 127 0" result="hardAlpha"/>
<feOffset dy="4"/>
<feGaussianBlur stdDeviation="2"/>
<feComposite in2="hardAlpha" operator="out"/>
<feColorMatrix type="matrix" values="0 0 0 0 0 0 0 0 0 0 0 0 0 0 0 0 0 0 0.25 0"/>
<feBlend mode="normal" in2="effect4_dropShadow_218_54" result="effect5_dropShadow_218_54"/>
<feColorMatrix in="SourceAlpha" type="matrix" values="0 0 0 0 0 0 0 0 0 0 0 0 0 0 0 0 0 0 127 0" result="hardAlpha"/>
<feOffset dy="4"/>
<feGaussianBlur stdDeviation="2"/>
<feComposite in2="hardAlpha" operator="out"/>
<feColorMatrix type="matrix" values="0 0 0 0 0 0 0 0 0 0 0 0 0 0 0 0 0 0 0.25 0"/>
<feBlend mode="normal" in2="effect5_dropShadow_218_54" result="effect6_dropShadow_218_54"/>
<feColorMatrix in="SourceAlpha" type="matrix" values="0 0 0 0 0 0 0 0 0 0 0 0 0 0 0 0 0 0 127 0" result="hardAlpha"/>
<feOffset dy="4"/>
<feGaussianBlur stdDeviation="2"/>
<feComposite in2="hardAlpha" operator="out"/>
<feColorMatrix type="matrix" values="0 0 0 0 0 0 0 0 0 0 0 0 0 0 0 0 0 0 0.25 0"/>
<feBlend mode="normal" in2="effect6_dropShadow_218_54" result="effect7_dropShadow_218_54"/>
<feColorMatrix in="SourceAlpha" type="matrix" values="0 0 0 0 0 0 0 0 0 0 0 0 0 0 0 0 0 0 127 0" result="hardAlpha"/>
<feOffset dy="4"/>
<feGaussianBlur stdDeviation="2"/>
<feComposite in2="hardAlpha" operator="out"/>
<feColorMatrix type="matrix" values="0 0 0 0 0 0 0 0 0 0 0 0 0 0 0 0 0 0 0.25 0"/>
<feBlend mode="normal" in2="effect7_dropShadow_218_54" result="effect8_dropShadow_218_54"/>
<feBlend mode="normal" in="SourceGraphic" in2="effect8_dropShadow_218_54" result="shape"/>
</filter>
</defs>
</svg>
