<svg width="25" height="30" viewBox="0 0 25 30" fill="none" xmlns="http://www.w3.org/2000/svg">
<path d="M21.914 10C21.4453 10 15.8594 10.2734 12.5 12.2266C9.10156 10.2734 3.51562 10 3.04688 10C1.36719 10 0 11.3672 0 13.0078V25.2735C0 26.836 1.25 28.164 2.85156 28.2422C4.29688 28.3202 7.89063 28.6327 10.1953 29.7656C10.5078 29.9219 10.8594 30 11.211 30H13.75C14.1015 30 14.4531 29.9219 14.7656 29.7656C17.0702 28.6327 20.664 28.3202 22.1094 28.2422C23.711 28.164 25 26.836 25 25.2735V13.0078C25 11.3672 23.5938 10 21.914 10ZM11.5625 27.1485C11.5625 27.5781 11.1327 27.8906 10.7031 27.7344C8.20312 26.7577 4.6875 26.4844 2.96875 26.3672C2.34375 26.3281 1.875 25.8594 1.875 25.2735V13.0078C1.875 12.3828 2.38281 11.875 3.04688 11.875C3.78906 11.9141 7.96875 12.1875 10.7812 13.4766C11.25 13.6719 11.5235 14.1406 11.5235 14.6094L11.5625 18.75V27.1485ZM23.125 25.2735C23.125 25.8594 22.6172 26.3281 21.9922 26.3672C20.2735 26.4844 16.7578 26.7577 14.2578 27.7344C13.8281 27.8906 13.4375 27.5781 13.4375 27.1485V18.75V14.6094C13.4375 14.1406 13.711 13.6719 14.1797 13.4766C16.9922 12.1875 21.1719 11.9141 21.914 11.875C22.5781 11.875 23.125 12.3828 23.125 13.0078V25.2735Z" fill="white"/>
<path d="M18.5 0C14.8776 0 12 2.71611 12 5.99416C12 8.24196 12.7787 8.92879 17.112 15.2975C17.7551 16.2342 19.2109 16.2342 19.8542 15.2975C24.1875 8.92879 25 8.24196 25 5.99416C25 2.68488 22.0546 0 18.5 0ZM18.5 14.4859C14.1667 8.11709 13.625 7.71128 13.625 5.99416C13.625 3.5278 15.7917 1.49854 18.5 1.49854C21.1745 1.49854 23.375 3.5278 23.375 5.99416C23.375 7.71128 22.8333 8.05465 18.5 14.4859ZM15.7917 5.99416C15.7917 7.39899 16.9766 8.49172 18.5 8.49172C19.9896 8.49172 21.2083 7.39899 21.2083 5.99416C21.2083 4.62049 19.9896 3.49659 18.5 3.49659C16.9766 3.49659 15.7917 4.62049 15.7917 5.99416Z" fill="white"/>
</svg>
