<svg width="24" height="24" viewBox="0 0 24 24" fill="none" xmlns="http://www.w3.org/2000/svg">
<path d="M18.5312 8.0625L15.9375 5.46875C15.6562 5.1875 15.2812 5 14.875 5H6.5C5.65625 5 5 5.6875 5 6.5V17.5C5 18.3438 5.65625 19 6.5 19H17.5C18.3125 19 19 18.3438 19 17.5V9.125C19 8.71875 18.8125 8.34375 18.5312 8.0625ZM13.5 6.5V9H9.5V6.5H13.5ZM17.3125 17.5H6.6875C6.5625 17.5 6.5 17.4375 6.5 17.3125V6.6875C6.5 6.59375 6.5625 6.5 6.6875 6.5H8V9.75C8 10.1875 8.3125 10.5 8.75 10.5H14.25C14.6562 10.5 15 10.1875 15 9.75V6.625L17.4375 9.09375C17.4688 9.125 17.5 9.15625 17.5 9.21875V17.3125C17.5 17.4375 17.4062 17.5 17.3125 17.5ZM12 11.25C10.4688 11.25 9.25 12.5 9.25 14C9.25 15.5312 10.4688 16.75 12 16.75C13.5 16.75 14.75 15.5312 14.75 14C14.75 12.5 13.5 11.25 12 11.25ZM12 15.25C11.2812 15.25 10.75 14.7188 10.75 14C10.75 13.3125 11.2812 12.75 12 12.75C12.6875 12.75 13.25 13.3125 13.25 14C13.25 14.7188 12.6875 15.25 12 15.25Z" fill="white"/>
</svg>
