<svg width="24" height="24" viewBox="0 0 24 24" fill="none" xmlns="http://www.w3.org/2000/svg">
<path d="M8.78125 18.9688C9.5 18.9688 10.0625 18.8438 10.5625 18.7188C10.9062 18.6562 11.125 18.3438 11.125 18V17C11.4375 16.875 11.7188 16.7188 11.9688 16.5312L12.8125 17C13.0938 17.1875 13.5 17.125 13.7188 16.875C14.5938 15.9688 15.25 15 15.5 13.7188C15.5625 13.4375 15.4375 13.125 15.1562 12.9375L14.3438 12.4375C14.375 12.0938 14.375 11.7812 14.3438 11.4688L15.1562 10.9375C15.4375 10.7812 15.5625 10.4688 15.5 10.1562C15.25 8.84375 14.5312 7.90625 13.7188 7.03125C13.5 6.78125 13.0938 6.71875 12.8125 6.875L11.9688 7.375C11.7188 7.1875 11.4375 7.03125 11.125 6.875V5.9375C11.125 5.59375 10.9062 5.28125 10.5625 5.21875C9.15625 4.875 8.375 4.875 6.96875 5.21875C6.65625 5.28125 6.40625 5.59375 6.40625 5.9375V6.875C6.125 7 5.84375 7.1875 5.5625 7.375L4.71875 6.875C4.4375 6.71875 4.0625 6.75 3.8125 7.03125C2.71875 8.1875 2.4375 8.84375 2.03125 10.0938C1.90625 10.4375 2.0625 10.8125 2.375 10.9688L3.21875 11.4688C3.1875 11.7812 3.1875 12.0938 3.21875 12.4375L2.375 12.9062C2.0625 13.0625 1.90625 13.4375 2.03125 13.7812C2.4375 15.0312 2.71875 15.6875 3.8125 16.875C4.0625 17.125 4.4375 17.1562 4.71875 17L5.5625 16.5C5.84375 16.6875 6.125 16.875 6.40625 17V18C6.40625 18.3438 6.65625 18.625 6.96875 18.7188C7.46875 18.8438 8.03125 18.9688 8.78125 18.9688ZM7.90625 17.375V15.9688L7.40625 15.7812C6.9375 15.625 6.5 15.375 6.125 15.0625L5.71875 14.7188L4.5 15.4062C4.125 14.9688 3.84375 14.4375 3.625 13.9062L4.84375 13.2188L4.75 12.6875C4.65625 12.1875 4.65625 11.6875 4.75 11.1875L4.84375 10.6875L3.625 9.96875C3.84375 9.4375 4.125 8.9375 4.5 8.46875L5.71875 9.1875L6.125 8.84375C6.5 8.5 6.9375 8.25 7.40625 8.09375L7.90625 7.90625V6.5C8.46875 6.4375 9.0625 6.4375 9.625 6.5V7.90625L10.125 8.09375C10.5938 8.25 11.0312 8.5 11.4062 8.84375L11.8125 9.1875L13.0312 8.46875C13.4062 8.9375 13.6875 9.4375 13.9062 9.96875L12.6875 10.6562L12.7812 11.1875C12.875 11.6875 12.875 12.1875 12.7812 12.6875L12.6875 13.2188L13.9062 13.9062C13.6875 14.4375 13.4062 14.9375 13.0312 15.4062L11.8125 14.6875L11.4062 15.0312C11.0312 15.375 10.5938 15.625 10.125 15.7812L9.625 15.9688V17.375C9.0625 17.4688 8.46875 17.4688 7.90625 17.375ZM8.75 14.7188C9.46875 14.7188 10.1562 14.4375 10.7188 13.9062C11.7812 12.8438 11.7812 11.0938 10.7188 10C9.625 8.9375 7.875 8.9375 6.8125 10C5.71875 11.0938 5.71875 12.8438 6.8125 13.9062C7.34375 14.4375 8.0625 14.7188 8.75 14.7188ZM8.75 10.6875C9.0625 10.6875 9.40625 10.8125 9.65625 11.0625C10.125 11.5625 10.125 12.3438 9.65625 12.8438C9.15625 13.3438 8.34375 13.3438 7.875 12.8438C7.375 12.3438 7.375 11.5625 7.875 11.0625C8.125 10.8125 8.4375 10.6875 8.75 10.6875ZM21.9375 6.65625C21.9062 6.5 21.75 6.34375 21.5625 6.34375H21.0625C20.9688 6.0625 20.7812 5.75 20.5938 5.53125L20.8438 5.09375C20.9062 4.9375 20.875 4.71875 20.75 4.59375C20.4688 4.375 20.125 4.1875 19.7812 4.03125C19.5938 3.96875 19.4062 4.03125 19.3125 4.21875L19.0625 4.625C18.75 4.59375 18.4062 4.59375 18.0938 4.625L17.8438 4.21875C17.75 4.03125 17.5625 3.96875 17.375 4.03125C17.0312 4.1875 16.6875 4.375 16.4062 4.59375C16.25 4.71875 16.2188 4.9375 16.3125 5.09375L16.5625 5.53125C16.3438 5.75 16.1875 6.0625 16.0938 6.34375H15.5938C15.4062 6.34375 15.25 6.5 15.2188 6.6875C15.1562 7.0625 15.1562 7.4375 15.2188 7.8125C15.25 8 15.4062 8.125 15.5938 8.125H16.0938C16.1875 8.4375 16.3438 8.71875 16.5625 8.96875L16.3125 9.40625C16.2188 9.5625 16.25 9.75 16.4062 9.875C16.6875 10.125 17.0312 10.3125 17.375 10.4375C17.5625 10.5 17.75 10.4375 17.8438 10.2812L18.0938 9.84375C18.4062 9.90625 18.75 9.90625 19.0625 9.84375L19.3125 10.2812C19.4062 10.4375 19.5938 10.5 19.7812 10.4375C20.125 10.3125 20.4688 10.125 20.75 9.875C20.875 9.75 20.9375 9.5625 20.8438 9.40625L20.5938 8.96875C20.7812 8.71875 20.9688 8.4375 21.0625 8.125H21.5625C21.75 8.125 21.9062 8 21.9375 7.8125C22 7.40625 22 7.03125 21.9375 6.65625ZM18.5625 8.25C18.0312 8.25 17.5625 7.78125 17.5625 7.25C17.5625 6.6875 18.0312 6.25 18.5625 6.25C19.125 6.25 19.5625 6.6875 19.5625 7.25C19.5625 7.78125 19.125 8.25 18.5625 8.25ZM21.9375 16.2188C21.9062 16.0312 21.75 15.9062 21.5625 15.9062H21.0625C20.9688 15.5938 20.7812 15.3125 20.5938 15.0625L20.8438 14.625C20.9062 14.4688 20.875 14.2812 20.75 14.1562C20.4688 13.9062 20.125 13.7188 19.75 13.5938C19.5938 13.5312 19.4062 13.5938 19.3125 13.75L19.0625 14.1875C18.75 14.125 18.4062 14.125 18.0938 14.1875L17.8438 13.75C17.75 13.5938 17.5625 13.5312 17.375 13.5938C17.0312 13.7188 16.6875 13.9062 16.4062 14.1562C16.25 14.2812 16.2188 14.4688 16.3125 14.625L16.5625 15.0625C16.3438 15.3125 16.1875 15.5938 16.0938 15.9062H15.5625C15.4062 15.9062 15.2188 16.0312 15.2188 16.2188C15.1562 16.5938 15.1562 17 15.2188 17.3438C15.25 17.5312 15.4062 17.6562 15.5625 17.6562H16.0938C16.1875 17.9688 16.3438 18.25 16.5625 18.5L16.3125 18.9375C16.2188 19.0938 16.25 19.3125 16.4062 19.4062C16.6875 19.6562 17.0312 19.8438 17.375 20C17.5625 20.0625 17.75 20 17.8438 19.8125L18.0938 19.375C18.4062 19.4375 18.75 19.4375 19.0625 19.375L19.3125 19.8125C19.4062 19.9688 19.5938 20.0625 19.75 20C20.125 19.8438 20.4688 19.6562 20.75 19.4062C20.875 19.3125 20.9375 19.0938 20.8438 18.9375L20.5938 18.5C20.7812 18.25 20.9688 17.9688 21.0625 17.6562H21.5625C21.75 17.6562 21.9062 17.5312 21.9375 17.3438C22 16.9688 22 16.5938 21.9375 16.2188ZM18.5625 17.7812C18.0312 17.7812 17.5625 17.3438 17.5625 16.7812C17.5625 16.25 18.0312 15.7812 18.5625 15.7812C19.125 15.7812 19.5625 16.25 19.5625 16.7812C19.5625 17.3438 19.125 17.7812 18.5625 17.7812Z" fill="white"/>
</svg>
