<svg width="24" height="24" viewBox="0 0 24 24" fill="none" xmlns="http://www.w3.org/2000/svg">
<path d="M19.0938 4.90625L17.4688 6.53125C16.0625 5.125 14.125 4.25 12 4.25C7.84375 4.25 4.4375 7.53125 4.25 11.625C4.21875 11.8438 4.40625 12 4.625 12H5.5C5.6875 12 5.84375 11.875 5.875 11.6562C6.0625 8.4375 8.71875 5.875 12 5.875C13.6875 5.875 15.2188 6.5625 16.3125 7.6875L14.625 9.375C14.375 9.625 14.5625 10 14.875 10H19.375C19.5625 10 19.75 9.84375 19.75 9.625V5.15625C19.75 4.84375 19.3438 4.65625 19.0938 4.90625ZM19.3438 12H18.4688C18.2812 12 18.125 12.1562 18.0938 12.375C17.9062 15.5938 15.25 18.125 12 18.125C10.2812 18.125 8.75 17.4688 7.65625 16.3438L9.34375 14.6562C9.59375 14.4062 9.40625 14 9.09375 14H4.625C4.40625 14 4.25 14.1875 4.25 14.375V18.875C4.25 19.1875 4.625 19.375 4.875 19.125L6.5 17.5C7.90625 18.9062 9.84375 19.75 12 19.75C16.125 19.75 19.5312 16.5 19.7188 12.4062C19.75 12.1875 19.5625 12 19.3438 12Z" fill="white"/>
</svg>
