<svg width="24" height="24" viewBox="0 0 24 24" fill="none" xmlns="http://www.w3.org/2000/svg">
<path d="M17.5 17.5C18.0312 17.5 18.5 17.0625 18.5 16.5C18.5 15.9688 18.0312 15.5 17.5 15.5C16.9375 15.5 16.5 15.9688 16.5 16.5C16.5 17.0625 16.9375 17.5 17.5 17.5ZM11.5 18.5H3.5V17.7188C3.5 16.2188 4.6875 15.0312 6.1875 15C6.65625 15 7.375 15.5 9 15.5C10.3125 15.5 11.1562 15.1562 11.5 15.0625V14C11.5 13.8438 11.5 13.6875 11.5312 13.5312C10.7188 13.625 10.2812 14 9 14C7.5 14 7.09375 13.5 6.1875 13.5C3.875 13.5312 2 15.4062 2 17.7188V18.5C2 19.3438 2.65625 20 3.5 20H11.6875C11.4375 19.4375 11.5 19.0625 11.5 18.5ZM21 13H20V11.5C20 10.125 18.875 9 17.5 9C16.0938 9 15 10.125 15 11.5V13H14C13.4375 13 13 13.4688 13 14V19C13 19.5625 13.4375 20 14 20H21C21.5312 20 22 19.5625 22 19V14C22 13.4688 21.5312 13 21 13ZM16.5 11.5C16.5 10.9688 16.9375 10.5 17.5 10.5C18.0312 10.5 18.5 10.9688 18.5 11.5V13H16.5V11.5ZM20.5 18.5H14.5V14.5H20.5V18.5ZM9 4C6.5 4 4.5 6.03125 4.5 8.5C4.5 11 6.5 13 9 13C11.4688 13 13.5 11 13.5 8.5C13.5 6.03125 11.4688 4 9 4ZM9 11.5C7.34375 11.5 6 10.1562 6 8.5C6 6.875 7.34375 5.5 9 5.5C10.625 5.5 12 6.875 12 8.5C11.9688 10.1562 10.625 11.5 9 11.5Z" fill="white"/>
</svg>
